<svg width="46" height="46" fill="currentColor" viewBox="0 0 24 24" xmlns="http://www.w3.org/2000/svg">
  <path fill-rule="evenodd" d="M4.85 3.25V0h1.5v3.25h11.3V0h1.5v3.25h2.45a2.35 2.35 0 0 1 2.35 2.35v16a2.35 2.35 0 0 1-2.35 2.35H2.4A2.35 2.35 0 0 1 .05 21.6v-16A2.35 2.35 0 0 1 2.4 3.25h2.45Zm0 1.5H2.4a.85.85 0 0 0-.85.85v16c0 .47.38.85.85.85h19.2c.47 0 .85-.38.85-.85v-16a.85.85 0 0 0-.85-.85h-2.45V8h-1.5V4.75H6.35V8h-1.5V4.75Zm6.4 8.1V9.6h1.5v3.25H16v1.5h-3.25v3.25h-1.5v-3.25H8v-1.5h3.25Z" clip-rule="evenodd"></path>
</svg>